<svg width="16" height="4" viewBox="0 0 16 4" fill="none" xmlns="http://www.w3.org/2000/svg">
<path d="M12 1.99988C12 1.46944 12.2107 0.960737 12.5858 0.585665C12.9609 0.210592 13.4696 -0.00012207 14 -0.00012207C14.5304 -0.00012207 15.0391 0.210592 15.4142 0.585665C15.7893 0.960737 16 1.46944 16 1.99988C16 2.53031 15.7893 3.03902 15.4142 3.41409C15.0391 3.78916 14.5304 3.99988 14 3.99988C13.4696 3.99988 12.9609 3.78916 12.5858 3.41409C12.2107 3.03902 12 2.53031 12 1.99988ZM6 1.99988C6 1.46944 6.21071 0.960737 6.58579 0.585665C6.96086 0.210592 7.46957 -0.00012207 8 -0.00012207C8.53043 -0.00012207 9.03914 0.210592 9.41421 0.585665C9.78929 0.960737 10 1.46944 10 1.99988C10 2.53031 9.78929 3.03902 9.41421 3.41409C9.03914 3.78916 8.53043 3.99988 8 3.99988C7.46957 3.99988 6.96086 3.78916 6.58579 3.41409C6.21071 3.03902 6 2.53031 6 1.99988ZM0 1.99988C0 1.46944 0.210714 0.960737 0.585786 0.585665C0.960859 0.210592 1.46957 -0.00012207 2 -0.00012207C2.53043 -0.00012207 3.03914 0.210592 3.41421 0.585665C3.78929 0.960737 4 1.46944 4 1.99988C4 2.53031 3.78929 3.03902 3.41421 3.41409C3.03914 3.78916 2.53043 3.99988 2 3.99988C1.46957 3.99988 0.960859 3.78916 0.585786 3.41409C0.210714 3.03902 0 2.53031 0 1.99988Z" fill="#C8E972"/>
</svg>
